<?xml version="1.0" standalone="no"?>
<!DOCTYPE svg PUBLIC "-//W3C//DTD SVG 20010904//EN"
 "http://www.w3.org/TR/2001/REC-SVG-20010904/DTD/svg10.dtd">
<svg version="1.0" xmlns="http://www.w3.org/2000/svg"
 width="700.000000pt" height="700.000000pt" viewBox="0 0 700.000000 700.000000"
 preserveAspectRatio="xMidYMid meet">
<metadata>
Created by potrace 1.14, written by Peter Selinger 2001-2017
</metadata>
<g transform="translate(0.000000,700.000000) scale(0.100000,-0.100000)"
fill="#000000" stroke="none">
<path d="M2873 6375 l-622 -623 -29 32 c-41 45 -122 159 -172 241 -49 81 -70
101 -111 110 -64 14 -118 -34 -138 -125 -14 -67 -19 -104 -37 -325 -6 -74 -7
-90 -19 -250 -4 -55 -9 -109 -10 -120 -1 -11 -3 -34 -4 -52 -1 -29 -94 -125
-866 -897 l-865 -866 725 -725 c722 -722 725 -725 727 -768 5 -126 46 -294 84
-344 42 -55 84 -34 131 66 15 34 32 61 37 61 5 0 20 -12 34 -27 20 -22 25 -39
28 -97 2 -39 5 -80 8 -91 3 -11 39 -189 81 -395 41 -206 78 -386 81 -400 2
-14 7 -33 10 -42 3 -10 7 -29 10 -42 10 -56 57 -203 80 -252 35 -75 71 -98
139 -91 61 6 97 27 237 139 94 76 183 160 262 250 l40 45 393 -394 393 -393
1750 1750 1750 1749 -522 523 -523 522 0 116 c0 104 -3 120 -27 170 -14 30
-43 73 -64 94 -69 71 -225 130 -373 142 l-63 5 -947 947 c-521 521 -956 954
-967 963 -18 15 -48 -13 -641 -606z"/>
</g>
</svg>
