<svg xmlns="http://www.w3.org/2000/svg" xmlns:xlink="http://www.w3.org/1999/xlink" viewBox="0 0 225.96 225.96"><defs><style>.cls-1{fill:#848484;}.cls-2{fill:#231f20;}.cls-3{fill:url(#linear-gradient);}.cls-4,.cls-5,.cls-7{fill:#fff;}.cls-5,.cls-6,.cls-7{stroke:#231f20;stroke-miterlimit:10;}.cls-5{stroke-width:1.5px;}.cls-6{fill:none;}</style><linearGradient id="linear-gradient" x1="141.73" y1="22.15" x2="141.73" y2="200.02" gradientUnits="userSpaceOnUse"><stop offset="0" stop-color="#fff"/><stop offset="0.11" stop-color="#e0dec7"/><stop offset="0.29" stop-color="#a59f5e"/><stop offset="0.61" stop-color="#666140"/><stop offset="0.98" stop-color="#231f20"/></linearGradient></defs><g id="Layer_17_copy_2" data-name="Layer 17 copy 2"><rect class="cls-1" x="64.38" y="40.98" width="154.74" height="154.81" transform="translate(-70.97 129.51) rotate(-45)"/><path class="cls-2" d="M141.73,12.47,247.66,118.4,141.78,224.29,35.85,118.36,141.73,12.47m0-7.07L138.2,8.94,32.31,114.82l-3.53,3.54,3.53,3.53L138.24,227.82l3.54,3.54,3.53-3.54L251.2,121.94l3.53-3.54-3.53-3.53L145.27,8.94,141.73,5.4Z" transform="translate(-28.78 -5.4)"/></g><g id="Layer_17_copy" data-name="Layer 17 copy"><path class="cls-3" d="M248.63,118,141.74,224.85,118.9,202,76,159.07h0L34.84,118,84.65,68.14c.3-4.42.76-9.09.92-11.8.35-4.57.68-9.11,1.1-13.74a30.77,30.77,0,0,1,1.06-6.4,5.27,5.27,0,0,1,.66-1.29l.82-.82c1.77-1.2,3.69,0,4.55,1.64.76,1.22,1.46,2.5,2.22,3.65,2.35,3.35,4.84,6.86,8,9.45l37.78-37.78,57.19,57.19c5.47-.24,11.12-.11,16,2.48,6.93,3.48,6.88,11.22,3.82,17.34Z" transform="translate(-28.78 -5.4)"/></g><g id="Layer_12" data-name="Layer 12"><path class="cls-4" d="M195.65,159.48l-53.87,53.87-17.66-17.66-.31.4,18,18,54.48-54.48C196.07,159.56,195.86,159.52,195.65,159.48Zm14-69.66-.36.35L237.14,118l-38,38c.11.13.23.25.34.37L237.85,118Zm-67.9-67.9L111.26,52.44l-3.9,3.9.53.17,4-3.94,29.94-29.94,46.5,46.5.62-.09ZM84.84,79.56,84.72,79l-39,39,30.74,30.74c0-.21,0-.42.07-.63L46.41,118Z" transform="translate(-28.78 -5.4)"/></g><g id="Layer_2_copy_3" data-name="Layer 2 copy 3"><g id="Layer_5_copy_3" data-name="Layer 5 copy 3"><path class="cls-5" d="M216.73,78.58c.2.57-4.81,2.33-11.65,6A118.75,118.75,0,0,0,185.5,98.07a199.23,199.23,0,0,0-15.07,13.61c-14.4,14.49-33,33.83-47.68,61.69-.66,1.26-4.81,9.22-6.13,14.82-.05.2-.1.39-.13.58-.45,2.16-.41,3.9.51,4.64s2.38.39,3.91-.22l.5-.2h0c2.26-1,4.5-2.31,5.07-1.58.2.25.28.85-2.37,4.28l-.31.4c-1,1.3-2.4,3-4.26,5.15l-.65.77c-.51.57-1,1.18-1.6,1.82-5.74,6.54-7.55,8.17-9,9.37-5.43,4.45-8.15,6.68-10.55,6.12-2.69-.61-4.19-4-9.19-30.29-1.65-8.66-2.46-10.44-2-13.95a17.79,17.79,0,0,1,1.12-4.35c.12-.32.26-.66.41-1a47.89,47.89,0,0,1,3.2-6.21l.26-.44c1.25-2.07,2.83-4.43,4.82-7.13a155.81,155.81,0,0,1,14.81-16.85c8.52-8.66,15.56-14.68,17.53-16.34A215.75,215.75,0,0,1,155.35,103a203.82,203.82,0,0,1,31-15.8,151.24,151.24,0,0,1,17.19-5.78C205.52,80.82,216.44,77.74,216.73,78.58Z" transform="translate(-28.78 -5.4)"/><path class="cls-5" d="M214,75.17c.07.52-9.17,1.39-21.15,4.89-16.09,4.71-27.23,11.34-37.32,17.32s-19.08,13.29-36.94,27.84c-9,7.37-13.61,11.5-18.38,17.61A129.83,129.83,0,0,0,88.9,160.48l-.26.44c-.07.16-.15.29-.21.41-1.15,2.18-2.11,4.13-2.92,5.87-.16.33-.31.65-.45,1-3.07,6.68-3.88,9.81-5.28,9.72-1.92-.14-3.74-8.45-3.82-18.82,0-.47,0-.94,0-1.42a86.18,86.18,0,0,1,.48-8.82s0-.07,0-.1c0-.21,0-.42.07-.63a86.29,86.29,0,0,1,7.41-26.33,472.59,472.59,0,0,1,53.42-26.95c22.32-9.54,32.3-13.54,43.26-15.95C197.91,75.06,213.92,74.49,214,75.17Z" transform="translate(-28.78 -5.4)"/><path class="cls-4" d="M156.43,76a35.92,35.92,0,0,1-15.68,1.91,35.48,35.48,0,0,1-10.47-2.74A16.07,16.07,0,0,1,134,72c1.24.41,3.12,1.09,5.36,2.09,1.26.56,2.14,1,2.33,1.09C143.6,76.11,147.55,76.82,156.43,76Z" transform="translate(-28.78 -5.4)"/><path class="cls-2" d="M156.43,76a34.46,34.46,0,0,1-27-.63A16.38,16.38,0,0,1,134,71.48l.2.08,5.43,2.16L142.2,75c4.49,1.64,9.51,1.13,14.23,1Zm0,0c-5.72.68-12,1.46-17.19-1.51l-5.38-2.05.41,0a16.26,16.26,0,0,0-3.61,3.09l-.18-.77a37.23,37.23,0,0,0,26,1.29Z" transform="translate(-28.78 -5.4)"/><path class="cls-5" d="M176.39,77.54c-2.58.7-6.37,1.79-10.92,3.28-8.92,2.92-14.94,5.47-25.38,9.8l-21.5,8.81C92.66,110.05,89,111.23,84.7,116.37c-6.09,7.29-7.2,15-9.34,14.71-1.43-.17-2.14-6.73-1.53-12.38.43-4,1.17-10.81,6.15-14.94.53-.45,2.55-1.55,6.57-3.75,2.89-1.58,5.16-2.77,7.71-4.1,9.8-5.11,11.45-5,14.1-7.91.42-.45,1.54-2,3.79-5,2.83-3.8,3.44-4.8,5-6.85.58-.74,1.31-1.69,2.12-2.67a35.91,35.91,0,0,1,3.81-4.09h0c6.09-5.35,16.76-6.84,24.37-2.94,4.53,2.32,7.35,6.28,7,6.7s-3.75-3.29-8.93-4A17.79,17.79,0,0,0,134,72a16.07,16.07,0,0,0-3.73,3.18,6.09,6.09,0,0,0-1.68,4,4.81,4.81,0,0,0,1.7,3.24c1.33,1.08,3.08,1,4.77.76a74.83,74.83,0,0,0,10.46-2,93.12,93.12,0,0,1,18.39-3.49A91.62,91.62,0,0,1,176.39,77.54Z" transform="translate(-28.78 -5.4)"/><path class="cls-2" d="M113.28,77.59" transform="translate(-28.78 -5.4)"/><path class="cls-5" d="M209.68,89.82l-.36.35c-4.45,4.43-13.29,13.66-18.5,27-2.61,6.66-5.63,14.71-2.89,23.32,2.39,7.5,8.19,12.42,11.17,15.58.11.13.23.25.34.37,1.17,1.29,1.78,2.27,1.35,3s-2.07.64-4.53.19c-.19,0-.4-.06-.61-.1a52.48,52.48,0,0,0-9.26-1,42.65,42.65,0,0,0-16.68,3.41c-4.91,2.7-12,6.73-20.38,11.95-16.13,10.06-19.9,13.86-21.45,12.77-4-2.85,32.91-63.69,36.09-62,1.1.59-2.62,8.27-1.19,9s7.75-15,22.47-28.08c1.82-1.79,4-3.88,6.64-6.16s5.6-4.75,9-7.29c1.57-1.18,3.5-2.64,6.07-4.37,3.84-2.58,10.72-6.83,11.17-6.22S214.23,85.33,209.68,89.82Z" transform="translate(-28.78 -5.4)"/><path class="cls-6" d="M181.28,62.53" transform="translate(-28.78 -5.4)"/><path class="cls-7" d="M218.74,88.06c-.15.31-.31.62-.49.92s-.18.33-.28.49c.08-.18.15-.36.22-.55s.27-.68.39-1c1.48-4.15,2-9.07-.75-12.68-3.39-4-9.77-4.66-16.19-4.25l-1.32.09c-2.9.24-5.76.67-8.32,1.09l-.62.09c-1.35.23-2.6.44-3.72.61-8.19,1.62-17.42,1.93-24.84-2.88-2.89-1.83-5.15-4.8-8-6.28C149.19,60.27,142.42,60,136,59.37c-4.65-.47-8.92.06-13.7-.24a79.48,79.48,0,0,1-14.08-2.51,1.92,1.92,0,0,1-.31-.11l-.53-.17a18.64,18.64,0,0,1-5.93-3.5l0,0-.74-.68A51.68,51.68,0,0,1,91.1,39.69C90,45.26,89.68,51,88.82,56.67l-1.16,8.46-.23,1.65L87,70.29a45.37,45.37,0,0,0-.56,7c0,.23,0,.45,0,.67a15.68,15.68,0,0,0,.28,2.26A31.35,31.35,0,0,0,94.64,95c-4.61-4-8.48-9.35-9.8-15.39L84.72,79c-.12-.63-.21-1.26-.27-1.9a55.85,55.85,0,0,1,.1-7.42c0-.5.07-1,.1-1.52.3-4.42.76-9.09.92-11.8.35-4.57.68-9.11,1.1-13.74a30.77,30.77,0,0,1,1.06-6.4,5.27,5.27,0,0,1,.66-1.29,2.9,2.9,0,0,1,.77-.79l0,0c1.77-1.2,3.69,0,4.55,1.64.76,1.22,1.46,2.5,2.22,3.65,2.35,3.35,4.84,6.86,8,9.45l.8.62A16.56,16.56,0,0,0,109.65,52l1.61.42.58.13a83.93,83.93,0,0,0,10.78,1.63c2.13.15,4.28,0,6.66,0a101.45,101.45,0,0,1,14,1c6,.66,12.34,2.59,17,6.66,2.5,2.27,4.53,4.57,7.62,5.9,4.72,2.17,10.46,2.48,15.78,1.93,1.49-.13,3-.34,4.54-.55l.62-.09c1.7-.22,3.4-.44,5.07-.54l3.61-.19,1.35-.07c5.47-.24,11.12-.11,16,2.48C221.85,74.2,221.8,81.94,218.74,88.06Z" transform="translate(-28.78 -5.4)"/><path class="cls-2" d="M178.81,157.93" transform="translate(-28.78 -5.4)"/><path class="cls-2" d="M117.69,65.08" transform="translate(-28.78 -5.4)"/><path class="cls-5" d="M123.11,69.43a35.91,35.91,0,0,0-3.81,4.09c-8-1.46-15.69-4.09-21.17-10.3a42.15,42.15,0,0,1-.34,8.93c-.32,2.14-1,4.21-1.23,6C96,82,97.71,86,100,89.21a15.23,15.23,0,0,1-5.88-11.16c.21-4.12.75-8,.22-12.13-.18-2.43-.91-5-1-7.57a4,4,0,0,1,.12-.82,2.79,2.79,0,0,1,3.73-1.94,7.18,7.18,0,0,1,2.43,2.14C105.77,65.61,114.29,67.58,123.11,69.43Z" transform="translate(-28.78 -5.4)"/></g></g></svg>