<svg id="visual" viewBox="0 0 900 675" width="900" height="675" xmlns="http://www.w3.org/2000/svg" xmlns:xlink="http://www.w3.org/1999/xlink" version="1.1"><path d="M0 407L129 431L257 402L386 486L514 478L643 413L771 425L900 424L900 676L771 676L643 676L514 676L386 676L257 676L129 676L0 676Z" fill="#007135"></path><path d="M0 508L129 533L257 478L386 516L514 534L643 497L771 458L900 508L900 676L771 676L643 676L514 676L386 676L257 676L129 676L0 676Z" fill="#00653f"></path><path d="M0 539L129 506L257 510L386 527L514 552L643 570L771 503L900 574L900 676L771 676L643 676L514 676L386 676L257 676L129 676L0 676Z" fill="#005843"></path><path d="M0 559L129 574L257 592L386 585L514 566L643 588L771 584L900 559L900 676L771 676L643 676L514 676L386 676L257 676L129 676L0 676Z" fill="#124b42"></path><path d="M0 643L129 627L257 610L386 600L514 628L643 616L771 643L900 598L900 676L771 676L643 676L514 676L386 676L257 676L129 676L0 676Z" fill="#213e3c"></path></svg>